<?xml version="1.0" encoding="UTF-8" ?>
<!DOCTYPE svg PUBLIC "-//W3C//DTD SVG 1.1//EN" "http://www.w3.org/Graphics/SVG/1.1/DTD/svg11.dtd">
<svg width="250pt" height="250pt" viewBox="0 0 250 250" version="1.1" xmlns="http://www.w3.org/2000/svg">
<path fill="#ffffff" d=" M 0.00 0.00 L 250.00 0.00 L 250.00 250.00 L 0.00 250.00 L 0.00 0.00 Z" />
<path fill="#000000" d=" M 21.19 7.16 C 21.87 7.13 23.23 7.06 23.92 7.02 C 91.28 7.03 158.65 7.03 226.02 7.02 C 229.56 7.08 233.34 7.56 236.26 9.74 C 240.69 12.53 242.95 17.79 242.96 22.90 C 243.01 89.93 242.94 156.96 242.99 223.98 C 243.03 228.17 242.87 232.76 240.26 236.26 C 237.48 240.68 232.22 242.94 227.11 242.95 C 159.38 243.00 91.64 242.95 23.91 242.98 C 18.74 243.12 13.26 241.27 10.20 236.91 C 7.71 233.89 7.05 229.87 7.02 226.07 C 7.05 158.35 7.00 90.62 7.05 22.89 C 6.73 14.95 13.15 7.48 21.19 7.16 Z" />
<path fill="#ffffff" d=" M 16.93 15.94 C 19.15 14.03 22.23 13.94 25.01 13.93 C 92.40 13.99 159.79 13.87 227.18 13.99 C 232.04 13.69 236.29 17.88 236.01 22.76 C 236.14 50.52 236.00 78.28 236.08 106.04 C 236.71 112.12 232.68 117.20 230.80 122.71 C 225.28 123.30 219.86 124.50 214.62 126.32 C 205.32 118.09 196.02 109.86 186.75 101.60 C 180.71 105.31 174.92 109.39 169.38 113.82 C 173.99 125.34 178.59 136.87 183.22 148.39 C 179.73 152.72 176.75 157.40 174.31 162.41 C 161.93 163.15 149.54 163.89 137.15 164.63 C 135.49 171.53 134.21 178.50 133.53 185.57 C 144.95 190.44 156.36 195.34 167.77 200.23 C 168.35 205.75 169.53 211.18 171.38 216.41 C 165.59 222.97 159.76 229.49 153.95 236.04 C 144.66 236.08 135.37 236.05 126.08 236.05 C 124.21 229.75 121.76 223.65 119.37 217.53 C 109.14 219.09 98.92 220.65 88.70 222.22 C 86.36 217.78 83.82 213.45 80.97 209.31 C 87.21 201.08 93.42 192.83 99.68 184.61 C 94.69 178.52 89.42 172.68 83.87 167.09 C 75.03 172.44 66.21 177.84 57.36 183.19 C 53.54 179.92 49.52 176.92 45.31 174.19 C 47.91 164.18 50.55 154.17 53.13 144.16 C 46.21 140.42 39.11 137.07 31.87 134.03 C 25.87 142.15 19.90 150.30 13.93 158.44 C 13.96 113.59 13.93 68.74 13.94 23.90 C 13.93 21.02 14.53 17.82 16.93 15.94 Z" />
<path fill="#000000" d=" M 80.31 21.88 C 86.18 20.43 92.13 19.35 98.15 18.73 C 102.14 28.01 106.15 37.29 110.17 46.57 C 114.48 47.03 118.72 47.99 122.82 49.41 C 130.35 42.66 137.91 35.95 145.44 29.19 C 150.60 32.35 155.57 35.80 160.28 39.61 C 156.53 49.00 152.80 58.40 149.06 67.79 C 151.80 71.16 154.11 74.83 156.03 78.72 C 166.12 79.29 176.22 79.85 186.32 80.45 C 187.77 86.32 188.81 92.27 189.43 98.29 C 180.15 102.34 170.84 106.29 161.55 110.33 C 161.12 114.61 160.19 118.83 158.78 122.90 C 165.50 130.46 172.24 138.02 178.97 145.58 C 175.88 150.78 172.32 155.67 168.60 160.43 C 159.18 156.71 149.78 152.93 140.35 149.22 C 137.00 151.96 133.33 154.26 129.46 156.20 C 128.89 166.28 128.31 176.36 127.71 186.44 C 121.85 187.92 115.90 188.98 109.88 189.59 C 105.89 180.29 101.88 171.01 97.87 161.72 C 93.57 161.28 89.34 160.34 85.25 158.94 C 77.70 165.66 70.14 172.39 62.58 179.11 C 57.43 175.97 52.47 172.53 47.75 168.75 C 51.44 159.32 55.24 149.93 58.97 140.51 C 56.28 137.16 53.88 133.58 52.08 129.67 C 41.96 128.99 31.84 128.48 21.73 127.88 C 20.26 122.00 19.17 116.05 18.57 110.03 C 27.84 106.01 37.13 102.04 46.41 98.03 C 46.88 93.72 47.82 89.48 49.22 85.38 C 42.50 77.82 35.77 70.28 29.06 62.72 C 32.18 57.55 35.65 52.61 39.44 47.91 C 48.86 51.60 58.23 55.40 67.63 59.12 C 70.99 56.37 74.66 54.04 78.56 52.14 C 79.15 42.05 79.73 31.97 80.31 21.88 Z" />
<path fill="#6a75d7" d=" M 85.78 26.53 C 88.68 25.83 91.61 25.31 94.56 24.95 C 98.42 33.91 102.27 42.87 106.16 51.81 C 112.32 52.46 118.37 53.78 124.22 55.82 C 131.48 49.33 138.74 42.85 146.01 36.37 C 148.54 37.95 150.99 39.67 153.35 41.50 C 149.75 50.56 146.13 59.60 142.53 68.66 C 146.46 73.46 149.76 78.70 152.52 84.25 C 162.23 84.82 171.94 85.36 181.66 85.95 C 182.30 88.85 182.85 91.78 183.21 94.73 C 174.27 98.60 165.32 102.43 156.37 106.29 C 155.78 112.45 154.35 118.47 152.36 124.32 C 158.81 131.63 165.33 138.88 171.79 146.17 C 170.22 148.71 168.51 151.15 166.65 153.48 C 157.63 149.86 148.57 146.32 139.55 142.69 C 134.73 146.66 129.40 149.87 123.86 152.72 C 123.39 162.42 122.77 172.10 122.25 181.79 C 119.35 182.47 116.42 183.00 113.46 183.38 C 109.57 174.43 105.79 165.44 101.85 156.51 C 95.71 155.89 89.67 154.55 83.84 152.50 C 76.55 158.98 69.29 165.49 61.97 171.94 C 59.45 170.36 57.02 168.66 54.68 166.82 C 58.28 157.77 61.86 148.72 65.47 139.67 C 61.63 134.83 58.20 129.68 55.56 124.08 C 45.83 123.48 36.09 122.95 26.36 122.37 C 25.68 119.48 25.19 116.56 24.79 113.62 C 33.73 109.72 42.72 105.93 51.65 102.02 C 52.27 95.86 53.62 89.82 55.65 83.98 C 49.19 76.69 42.70 69.42 36.24 62.13 C 37.80 59.61 39.51 57.17 41.35 54.84 C 50.42 58.42 59.47 62.07 68.55 65.62 C 73.33 61.71 78.54 58.42 84.08 55.69 C 84.67 45.97 85.21 36.25 85.78 26.53 Z" />
<path fill="#000000" d=" M 97.32 71.19 C 113.57 67.48 131.34 77.95 136.05 93.90 C 141.31 109.12 133.64 127.29 119.14 134.20 C 105.68 141.29 87.71 137.59 78.19 125.72 C 70.48 116.71 68.25 103.47 72.48 92.40 C 76.37 81.68 86.11 73.35 97.32 71.19 Z" />
<path fill="#ffffff" d=" M 98.54 76.80 C 106.55 75.19 115.26 77.24 121.56 82.49 C 127.72 87.41 131.57 95.07 131.88 102.95 C 132.45 113.02 126.96 123.07 118.27 128.15 C 108.48 134.07 95.10 133.15 86.33 125.75 C 78.77 119.71 74.89 109.49 76.44 99.95 C 78.00 88.61 87.27 78.88 98.54 76.80 Z" />
<path fill="#9cca15" d=" M 176.35 115.72 C 179.47 113.19 182.78 110.90 186.22 108.82 C 195.22 116.79 204.20 124.77 213.19 132.75 C 220.20 130.33 227.41 128.69 234.78 127.90 C 235.09 127.23 235.70 125.87 236.00 125.19 C 236.00 134.20 236.01 143.21 235.99 152.22 C 224.07 152.78 212.53 158.89 205.42 168.48 C 198.74 177.20 196.01 188.73 197.78 199.55 C 199.55 210.99 206.57 221.46 216.40 227.57 C 221.33 230.77 227.02 232.33 232.67 233.71 C 230.42 235.28 227.75 236.18 224.99 236.02 C 203.88 235.98 182.78 236.02 161.67 235.99 C 167.03 229.92 172.42 223.87 177.78 217.79 C 175.34 210.79 173.74 203.56 172.93 196.19 C 161.88 191.44 150.82 186.72 139.78 181.96 C 140.20 177.96 140.87 173.99 141.85 170.09 C 153.85 169.38 165.84 168.65 177.84 167.94 C 181.15 161.30 185.06 155.01 189.74 149.24 C 185.29 138.06 180.81 126.90 176.35 115.72 Z" />
<path fill="#9cca15" d=" M 16.93 164.09 C 22.54 156.45 28.14 148.80 33.75 141.16 C 38.06 142.95 42.30 144.93 46.40 147.16 C 43.86 156.98 41.28 166.79 38.75 176.61 C 45.06 180.78 51.11 185.29 56.90 190.15 C 65.59 184.92 74.23 179.63 82.90 174.38 C 86.23 177.68 89.35 181.18 92.30 184.81 C 86.21 192.91 80.07 200.98 73.98 209.08 C 78.22 215.34 82.10 221.82 85.60 228.52 C 95.62 226.99 105.64 225.45 115.67 223.91 C 117.31 227.86 118.79 231.89 120.03 236.00 C 100.85 235.97 81.67 236.06 62.49 235.95 C 52.22 215.87 34.71 199.64 14.00 190.72 C 13.99 182.29 14.02 173.86 13.99 165.42 C 15.31 165.71 16.29 165.26 16.93 164.09 Z" />
<path fill="#ffffff" d=" M 206.01 178.79 C 211.09 166.94 223.19 158.61 236.06 157.99 C 236.06 181.28 236.07 204.56 236.05 227.84 C 224.42 227.48 213.30 220.55 207.65 210.41 C 202.12 200.94 201.47 188.78 206.01 178.79 Z" />
<path fill="#ffffff" d=" M 13.95 196.99 C 31.63 205.14 46.59 219.04 56.05 236.05 C 44.66 235.98 33.26 236.22 21.88 235.94 C 17.64 235.87 14.06 232.19 14.04 227.96 C 13.79 217.64 14.01 207.31 13.95 196.99 Z" />
</svg>
